<svg width="390" height="66" viewBox="0 0 390 66" fill="none" xmlns="http://www.w3.org/2000/svg">
<path d="M25.75 47.75L4.25 37V32L25.75 21.25V25.6L10.25 33.2C9.61667 33.5 9.01667 33.7667 8.45 34C7.91667 34.2 7.51667 34.3333 7.25 34.4C7.55 34.4667 7.98333 34.6167 8.55 34.85C9.11667 35.05 9.68333 35.3 10.25 35.6L25.75 43.25V47.75ZM32.4805 51L41.9805 14.5H48.0305L57.4805 51H52.9305L50.5305 41.3H39.4805L37.0805 51H32.4805ZM40.3805 37.5H49.5805L46.7805 26.25C46.2471 24.1167 45.8305 22.3333 45.5305 20.9C45.2305 19.4667 45.0471 18.5333 44.9805 18.1C44.9138 18.5333 44.7305 19.4667 44.4305 20.9C44.1305 22.3333 43.7138 24.1 43.1805 26.2L40.3805 37.5ZM78.7109 51C77.1109 51 75.7109 50.6833 74.5109 50.05C73.3109 49.4167 72.3776 48.5167 71.7109 47.35C71.0443 46.1833 70.7109 44.8167 70.7109 43.25V18.6H61.4609V14.5H75.2109V43.25C75.2109 44.3833 75.5276 45.2833 76.1609 45.95C76.7943 46.5833 77.6443 46.9 78.7109 46.9H87.4609V51H78.7109ZM104.941 51.5C102.775 51.5 100.875 51.0667 99.2414 50.2C97.6414 49.3333 96.3914 48.1167 95.4914 46.55C94.6247 44.95 94.1914 43.1 94.1914 41V33.5C94.1914 31.3667 94.6247 29.5167 95.4914 27.95C96.3914 26.3833 97.6414 25.1667 99.2414 24.3C100.875 23.4333 102.775 23 104.941 23C107.108 23 108.991 23.4333 110.591 24.3C112.225 25.1667 113.475 26.3833 114.341 27.95C115.241 29.5167 115.691 31.3667 115.691 33.5V38.35H98.5914V41C98.5914 43.1667 99.1414 44.8333 100.241 46C101.341 47.1333 102.908 47.7 104.941 47.7C106.675 47.7 108.075 47.4 109.141 46.8C110.208 46.1667 110.858 45.2333 111.091 44H115.591C115.291 46.3 114.158 48.1333 112.191 49.5C110.258 50.8333 107.841 51.5 104.941 51.5ZM111.291 35.35V33.5C111.291 31.3333 110.741 29.6667 109.641 28.5C108.575 27.3333 107.008 26.75 104.941 26.75C102.908 26.75 101.341 27.3333 100.241 28.5C99.1414 29.6667 98.5914 31.3333 98.5914 33.5V34.95H111.641L111.291 35.35ZM130.922 51V30.35H122.922V26.25H130.922V21.5C130.922 19.3333 131.605 17.6333 132.972 16.4C134.339 15.1333 136.222 14.5 138.622 14.5H146.672V18.6H138.622C137.589 18.6 136.789 18.85 136.222 19.35C135.689 19.8167 135.422 20.5333 135.422 21.5V26.25H146.672V30.35H135.422V51H130.922ZM364.016 47.75V43.4L379.516 35.8C380.149 35.5 380.732 35.25 381.266 35.05C381.832 34.8167 382.249 34.6667 382.516 34.6C382.216 34.5333 381.782 34.4 381.216 34.2C380.649 33.9667 380.082 33.7 379.516 33.4L364.016 25.75V21.25L385.516 32V37L364.016 47.75Z" fill="white"/>
<path d="M184.483 51V14.5H193.933C196.299 14.5 198.333 14.95 200.033 15.85C201.766 16.75 203.099 18.0167 204.033 19.65C204.999 21.2833 205.483 23.2167 205.483 25.45V40C205.483 42.2333 204.999 44.1833 204.033 45.85C203.099 47.4833 201.766 48.75 200.033 49.65C198.333 50.55 196.299 51 193.933 51H184.483ZM188.983 47H193.933C196.133 47 197.849 46.3833 199.083 45.15C200.349 43.9167 200.983 42.2 200.983 40V25.45C200.983 23.2833 200.349 21.5833 199.083 20.35C197.849 19.1167 196.133 18.5 193.933 18.5H188.983V47ZM222.463 51.5C219.563 51.5 217.28 50.7667 215.613 49.3C213.947 47.8 213.113 45.7833 213.113 43.25C213.113 40.6833 213.947 38.6667 215.613 37.2C217.28 35.7333 219.53 35 222.363 35H230.863V32.25C230.863 30.55 230.347 29.25 229.313 28.35C228.313 27.4167 226.88 26.95 225.013 26.95C223.38 26.95 222.013 27.3 220.913 28C219.813 28.6667 219.18 29.5833 219.013 30.75H214.513C214.813 28.3833 215.93 26.5 217.863 25.1C219.797 23.7 222.213 23 225.113 23C228.28 23 230.78 23.8167 232.613 25.45C234.447 27.0833 235.363 29.3 235.363 32.1V51H230.963V45.75H230.213L230.963 45C230.963 47 230.18 48.5833 228.613 49.75C227.08 50.9167 225.03 51.5 222.463 51.5ZM223.563 47.95C225.697 47.95 227.447 47.4167 228.813 46.35C230.18 45.2833 230.863 43.9167 230.863 42.25V38.35H222.463C220.963 38.35 219.78 38.7667 218.913 39.6C218.047 40.4333 217.613 41.5667 217.613 43C217.613 44.5333 218.13 45.75 219.163 46.65C220.23 47.5167 221.697 47.95 223.563 47.95ZM244.444 51V23.5H248.944V28.75H249.894L248.944 29.8C248.944 27.6333 249.594 25.9667 250.894 24.8C252.194 23.6 253.994 23 256.294 23C259.06 23 261.26 23.85 262.894 25.55C264.527 27.25 265.344 29.5667 265.344 32.5V51H260.844V33C260.844 31.0333 260.31 29.5333 259.244 28.5C258.21 27.4333 256.794 26.9 254.994 26.9C253.127 26.9 251.644 27.4667 250.544 28.6C249.477 29.7333 248.944 31.3667 248.944 33.5V51H244.444ZM274.074 51V46.9H283.824V27.6H275.324V23.5H288.324V46.9H297.574V51H274.074ZM285.574 18.55C284.474 18.55 283.608 18.2667 282.974 17.7C282.341 17.1333 282.024 16.3667 282.024 15.4C282.024 14.4 282.341 13.6167 282.974 13.05C283.608 12.45 284.474 12.15 285.574 12.15C286.674 12.15 287.541 12.45 288.174 13.05C288.808 13.6167 289.124 14.4 289.124 15.4C289.124 16.3667 288.808 17.1333 288.174 17.7C287.541 18.2667 286.674 18.55 285.574 18.55ZM314.805 51.5C312.638 51.5 310.738 51.0667 309.105 50.2C307.505 49.3333 306.255 48.1167 305.355 46.55C304.488 44.95 304.055 43.1 304.055 41V33.5C304.055 31.3667 304.488 29.5167 305.355 27.95C306.255 26.3833 307.505 25.1667 309.105 24.3C310.738 23.4333 312.638 23 314.805 23C316.971 23 318.855 23.4333 320.455 24.3C322.088 25.1667 323.338 26.3833 324.205 27.95C325.105 29.5167 325.555 31.3667 325.555 33.5V38.35H308.455V41C308.455 43.1667 309.005 44.8333 310.105 46C311.205 47.1333 312.771 47.7 314.805 47.7C316.538 47.7 317.938 47.4 319.005 46.8C320.071 46.1667 320.721 45.2333 320.955 44H325.455C325.155 46.3 324.021 48.1333 322.055 49.5C320.121 50.8333 317.705 51.5 314.805 51.5ZM321.155 35.35V33.5C321.155 31.3333 320.605 29.6667 319.505 28.5C318.438 27.3333 316.871 26.75 314.805 26.75C312.771 26.75 311.205 27.3333 310.105 28.5C309.005 29.6667 308.455 31.3333 308.455 33.5V34.95H321.505L321.155 35.35ZM348.535 51C346.935 51 345.535 50.6833 344.335 50.05C343.135 49.4167 342.202 48.5167 341.535 47.35C340.868 46.1833 340.535 44.8167 340.535 43.25V18.6H331.285V14.5H345.035V43.25C345.035 44.3833 345.352 45.2833 345.985 45.95C346.618 46.5833 347.468 46.9 348.535 46.9H357.285V51H348.535Z" fill="#FF8D00"/>
</svg>
